<mxfile host="65bd71144e">
    <diagram id="h5ErkXXXBNeelUUeir98" name="ページ1">
        <mxGraphModel dx="888" dy="785" grid="1" gridSize="10" guides="1" tooltips="1" connect="1" arrows="1" fold="1" page="1" pageScale="1" pageWidth="827" pageHeight="1169" math="0" shadow="0">
            <root>
                <mxCell id="0"/>
                <mxCell id="1" parent="0"/>
                <mxCell id="5" value="ブラウザ" style="swimlane;fillColor=#647687;strokeColor=#FFFFFF;fontColor=#ffffff;" parent="1" vertex="1">
                    <mxGeometry x="40" y="40" width="460" height="420" as="geometry">
                        <mxRectangle x="60" y="50" width="80" height="23" as="alternateBounds"/>
                    </mxGeometry>
                </mxCell>
                <mxCell id="11" value="web page" style="whiteSpace=wrap;html=1;fillColor=#647687;fontColor=#ffffff;strokeColor=#314354;align=left;verticalAlign=top;" parent="5" vertex="1">
                    <mxGeometry x="10" y="40" width="230" height="140" as="geometry"/>
                </mxCell>
                <mxCell id="23" value="彼女は図書館で本をたくさん読む" style="whiteSpace=wrap;html=1;fillColor=#6d8764;fontColor=#ffffff;strokeColor=#3A5431;align=center;verticalAlign=middle;" parent="5" vertex="1">
                    <mxGeometry x="20" y="80" width="200" height="40" as="geometry"/>
                </mxCell>
                <mxCell id="12" value="function decorate(){.......}" style="whiteSpace=wrap;html=1;strokeColor=#FFFFFF;align=center;" parent="5" vertex="1">
                    <mxGeometry x="30" y="350" width="150" height="50" as="geometry"/>
                </mxCell>
                <mxCell id="13" style="edgeStyle=none;html=1;entryX=0.5;entryY=1;entryDx=0;entryDy=0;" parent="5" source="12" target="11" edge="1">
                    <mxGeometry relative="1" as="geometry"/>
                </mxCell>
                <mxCell id="14" value="①開発者ツールから関数を埋め込む" style="edgeLabel;html=1;align=center;verticalAlign=middle;resizable=0;points=[];" parent="13" vertex="1" connectable="0">
                    <mxGeometry x="-0.1451" y="1" relative="1" as="geometry">
                        <mxPoint as="offset"/>
                    </mxGeometry>
                </mxCell>
                <mxCell id="20" style="edgeStyle=none;html=1;entryX=0;entryY=0.5;entryDx=0;entryDy=0;" parent="1" source="15" target="19" edge="1">
                    <mxGeometry relative="1" as="geometry">
                        <Array as="points">
                            <mxPoint x="540" y="180"/>
                        </Array>
                    </mxGeometry>
                </mxCell>
                <mxCell id="21" value="③request&lt;br&gt;https://server.test.com?sentents=彼女は図書館で本をたくさん読む" style="edgeLabel;html=1;align=left;verticalAlign=middle;resizable=0;points=[];" parent="20" vertex="1" connectable="0">
                    <mxGeometry x="-0.2447" y="1" relative="1" as="geometry">
                        <mxPoint x="-168" y="-4" as="offset"/>
                    </mxGeometry>
                </mxCell>
                <mxCell id="27" style="edgeStyle=none;html=1;" parent="1" source="15" target="23" edge="1">
                    <mxGeometry relative="1" as="geometry">
                        <Array as="points">
                            <mxPoint x="220" y="360"/>
                        </Array>
                    </mxGeometry>
                </mxCell>
                <mxCell id="28" value="⑤主語、目的語、述語の文字色を変える" style="edgeLabel;html=1;align=center;verticalAlign=middle;resizable=0;points=[];" parent="27" vertex="1" connectable="0">
                    <mxGeometry x="-0.2888" y="-1" relative="1" as="geometry">
                        <mxPoint x="33" as="offset"/>
                    </mxGeometry>
                </mxCell>
                <mxCell id="15" value="function decorate(){.......}" style="whiteSpace=wrap;html=1;strokeColor=#FFFFFF;align=center;" parent="1" vertex="1">
                    <mxGeometry x="310" y="360" width="150" height="50" as="geometry"/>
                </mxCell>
                <mxCell id="16" style="edgeStyle=none;html=1;entryX=0.5;entryY=0;entryDx=0;entryDy=0;" parent="1" source="11" target="15" edge="1">
                    <mxGeometry relative="1" as="geometry"/>
                </mxCell>
                <mxCell id="17" value="②decorate() 実行" style="edgeLabel;html=1;align=center;verticalAlign=middle;resizable=0;points=[];" parent="16" vertex="1" connectable="0">
                    <mxGeometry x="0.1532" y="-2" relative="1" as="geometry">
                        <mxPoint x="-10" y="-22" as="offset"/>
                    </mxGeometry>
                </mxCell>
                <mxCell id="18" value="サーバー" style="swimlane;fillColor=#647687;strokeColor=#FFFFFF;fontColor=#ffffff;" parent="1" vertex="1">
                    <mxGeometry x="690" y="40" width="230" height="420" as="geometry">
                        <mxRectangle x="60" y="50" width="80" height="23" as="alternateBounds"/>
                    </mxGeometry>
                </mxCell>
                <mxCell id="19" value="単語依存構造解析" style="whiteSpace=wrap;html=1;fillColor=#647687;fontColor=#ffffff;strokeColor=#314354;" parent="18" vertex="1">
                    <mxGeometry x="30" y="50" width="170" height="70" as="geometry"/>
                </mxCell>
                <mxCell id="24" style="edgeStyle=none;html=1;entryX=1;entryY=0.5;entryDx=0;entryDy=0;" parent="1" source="19" target="15" edge="1">
                    <mxGeometry relative="1" as="geometry">
                        <Array as="points">
                            <mxPoint x="740" y="270"/>
                            <mxPoint x="670" y="370"/>
                        </Array>
                    </mxGeometry>
                </mxCell>
                <mxCell id="25" value="④response&lt;br&gt;[{&lt;br&gt;&lt;span&gt;&#9;&lt;/span&gt;&lt;span style=&quot;white-space: pre&quot;&gt;&#9;&lt;/span&gt;文章: &quot;彼女は図書館で本をたくさん読む&quot;,&lt;br&gt;&lt;span style=&quot;white-space: pre&quot;&gt;&#9;&lt;/span&gt;主語: &quot;彼女&quot;,&lt;br&gt;&lt;span style=&quot;white-space: pre&quot;&gt;&#9;&lt;/span&gt;目的語: &quot;本&quot;,&lt;br&gt;&lt;span style=&quot;white-space: pre&quot;&gt;&#9;&lt;/span&gt;述語: &quot;読む&quot;&lt;br&gt;}]" style="edgeLabel;html=1;align=left;verticalAlign=middle;resizable=0;points=[];" parent="24" vertex="1" connectable="0">
                    <mxGeometry x="-0.3511" y="-1" relative="1" as="geometry">
                        <mxPoint x="-144" y="109" as="offset"/>
                    </mxGeometry>
                </mxCell>
            </root>
        </mxGraphModel>
    </diagram>
</mxfile>